<?xml version="1.0" encoding="UTF-8"?>
<svg id="Capa_1" data-name="Capa 1" xmlns="http://www.w3.org/2000/svg" xmlns:xlink="http://www.w3.org/1999/xlink" viewBox="0 0 1000 1068.73">
  <defs>
    <style>
      .cls-1 {
        fill: #16243f;
      }

      .cls-2 {
        fill: url(#Degradado_sin_nombre_118);
      }

      .cls-3 {
        fill: url(#Degradado_sin_nombre_80);
      }

      .cls-4 {
        fill: url(#Degradado_sin_nombre_120);
      }

      .cls-5 {
        fill: url(#Degradado_sin_nombre_104);
      }

      .cls-6 {
        fill: url(#Degradado_sin_nombre_104-2);
      }

      .cls-7 {
        fill: url(#Degradado_sin_nombre_119);
      }

      .cls-8 {
        fill: #121d2f;
      }

      .cls-9 {
        fill: #914526;
      }
    </style>
    <linearGradient id="Degradado_sin_nombre_118" data-name="Degradado sin nombre 118" x1="205" y1="372.69" x2="668.42" y2="381.64" gradientUnits="userSpaceOnUse">
      <stop offset=".34" stop-color="#914526"/>
      <stop offset=".37" stop-color="#a66246"/>
      <stop offset=".41" stop-color="#c38c73"/>
      <stop offset=".45" stop-color="#dbad97"/>
      <stop offset=".48" stop-color="#ecc5b1"/>
      <stop offset=".52" stop-color="#f6d3c0"/>
      <stop offset=".54" stop-color="#fad9c6"/>
      <stop offset=".55" stop-color="#f9d8c5"/>
      <stop offset=".62" stop-color="#d19b84"/>
      <stop offset=".68" stop-color="#b36e54"/>
      <stop offset=".73" stop-color="#a15336"/>
      <stop offset=".76" stop-color="#9b492c"/>
    </linearGradient>
    <linearGradient id="Degradado_sin_nombre_119" data-name="Degradado sin nombre 119" x1="207.87" y1="224.31" x2="671.28" y2="233.27" gradientUnits="userSpaceOnUse">
      <stop offset=".36" stop-color="#914526"/>
      <stop offset=".38" stop-color="#a66246"/>
      <stop offset=".41" stop-color="#c38c73"/>
      <stop offset=".45" stop-color="#dbad97"/>
      <stop offset=".48" stop-color="#ecc5b1"/>
      <stop offset=".51" stop-color="#f6d3c0"/>
      <stop offset=".53" stop-color="#fad9c6"/>
      <stop offset=".53" stop-color="#f9d8c5"/>
      <stop offset=".66" stop-color="#d19b84"/>
      <stop offset=".77" stop-color="#b36e54"/>
      <stop offset=".85" stop-color="#a15336"/>
      <stop offset=".9" stop-color="#9b492c"/>
    </linearGradient>
    <linearGradient id="Degradado_sin_nombre_104" data-name="Degradado sin nombre 104" x1="206.95" y1="344.86" x2="730.21" y2="406.12" gradientUnits="userSpaceOnUse">
      <stop offset=".52" stop-color="#213456"/>
      <stop offset="1" stop-color="#3065ad"/>
    </linearGradient>
    <linearGradient id="Degradado_sin_nombre_120" data-name="Degradado sin nombre 120" x1="263.66" y1="227.78" x2="679.98" y2="227.78" gradientUnits="userSpaceOnUse">
      <stop offset="0" stop-color="#914526"/>
      <stop offset=".07" stop-color="#a66246"/>
      <stop offset=".18" stop-color="#c38c73"/>
      <stop offset=".29" stop-color="#dbad97"/>
      <stop offset=".38" stop-color="#ecc5b1"/>
      <stop offset=".47" stop-color="#f6d3c0"/>
      <stop offset=".54" stop-color="#fad9c6"/>
      <stop offset=".55" stop-color="#f9d8c5"/>
      <stop offset=".7" stop-color="#d19b84"/>
      <stop offset=".83" stop-color="#b36e54"/>
      <stop offset=".92" stop-color="#a15336"/>
      <stop offset=".98" stop-color="#9b492c"/>
    </linearGradient>
    <linearGradient id="Degradado_sin_nombre_80" data-name="Degradado sin nombre 80" x1="588.75" y1="411.9" x2="741.89" y2="633.97" gradientUnits="userSpaceOnUse">
      <stop offset=".09" stop-color="#914526"/>
      <stop offset=".19" stop-color="#ab5f3d"/>
      <stop offset=".31" stop-color="#c47953"/>
      <stop offset=".43" stop-color="#d38861"/>
      <stop offset=".52" stop-color="#d98e66"/>
      <stop offset=".66" stop-color="#bf714d"/>
      <stop offset=".84" stop-color="#a45335"/>
      <stop offset=".94" stop-color="#9b492c"/>
    </linearGradient>
    <linearGradient id="Degradado_sin_nombre_104-2" data-name="Degradado sin nombre 104" x1="527.56" y1="298.7" x2="757.17" y2="298.7" xlink:href="#Degradado_sin_nombre_104"/>
  </defs>
  <g>
    <g>
      <path class="cls-2" d="M297.56,370.19c-3.22,10.5-2.41,12.21,0,0h0Z"/>
      <path class="cls-7" d="M357.92,213.84c-32.33,62.11-49.84,102.1-60.23,155.7-.05,.23-.09,.43-.13,.65,10.28-33.52,61.7-156.42,233.93-200.6-5.59-5.55-33.18-4.25-33.18-4.25,0,0,46.39-38.29,128.39-20.51,3-3.48-57.3-27.33-124.81-17.78,2.63-3.95,40.5-32.93,84.63-19.76,44.13,13.17,81.22,36.29,90.99,90.76,0,0-12.18-68.81-45.09-119.06-2.19-3.34-4.66-6.46-7.29-9.43-32.96-16.63-71.72-25.03-115.93-25.03-71.42,0-128.65,21.88-170.09,65.03-79.98,83.28-75.43,219.45-75.38,220.81l.03,.77-.09,.77c-.1,.79-3.9,33.49-1.88,79.11,9.49-36.57,42.99-166.52,96.13-197.19Z"/>
    </g>
    <path class="cls-8" d="M439.93,409.62c-2.67-33.13-4.53-85.45,3.69-134.78,13.41-80.46,72.41-77.77,72.41-77.77,59.9,.89,67.05,52.74,71.52,79.56,3.25,19.5,4.14,56.8,4.64,73.99,15.75-11.7,74.91-61.5,85.33-114.09,5.08-25.66,1.19-46.24-5.92-64.11,4.1,15.42,5.92,25.64,5.92,25.64-9.77-54.47-46.87-77.59-90.99-90.76-44.13-13.17-82,15.81-84.63,19.76,67.51-9.55,127.81,14.3,124.81,17.78-82-17.78-128.39,20.51-128.39,20.51,0,0,27.59-1.29,33.18,4.25-172.23,44.17-223.65,167.08-233.93,200.6-2.41,12.21-3.22,10.5,0,0,.04-.22,.08-.42,.13-.65,10.39-53.6,27.9-93.59,60.23-155.7-53.18,30.68-86.67,160.71-96.13,197.18,0,0,0,0,0,0,.09,1.95,.18,3.92,.29,5.91,.01,.24,.03,.47,.04,.71,.1,1.82,.21,3.65,.33,5.5,.02,.27,.03,.54,.05,.8,.13,1.96,.27,3.94,.42,5.93,0,.11,.02,.23,.03,.34,.34,4.34,.73,8.76,1.18,13.25,0,.09,.02,.18,.03,.26,.21,2.05,.43,4.11,.67,6.18,.05,.44,.1,.87,.15,1.31,.2,1.75,.42,3.52,.64,5.29,.07,.54,.14,1.07,.21,1.61,.22,1.73,.46,3.47,.7,5.21,.07,.52,.14,1.04,.22,1.56,.28,1.95,.57,3.9,.88,5.87,.05,.29,.09,.59,.13,.88,.72,4.56,1.51,9.15,2.37,13.77,.11,.57,.22,1.13,.33,1.7,.33,1.7,.66,3.41,1.01,5.12,.15,.71,.29,1.43,.44,2.15,.33,1.59,.67,3.18,1.02,4.77,.16,.75,.33,1.5,.5,2.25,.37,1.64,.75,3.27,1.14,4.91,.16,.67,.32,1.34,.48,2.02,.49,2.03,1.01,4.06,1.53,6.09,.07,.26,.13,.53,.2,.79,.61,2.32,1.24,4.64,1.89,6.95,.15,.53,.31,1.05,.46,1.58,.5,1.75,1.01,3.5,1.54,5.25,.24,.79,.48,1.57,.73,2.36,.46,1.5,.94,3,1.42,4.5,.27,.84,.55,1.69,.83,2.53,.49,1.47,.99,2.94,1.49,4.41,.29,.83,.57,1.65,.86,2.48,.56,1.58,1.14,3.15,1.72,4.73,.25,.68,.5,1.37,.76,2.05,.85,2.25,1.73,4.49,2.63,6.72,.08,.19,.16,.38,.24,.57,.83,2.03,1.68,4.05,2.55,6.06,.32,.73,.64,1.45,.97,2.18,.65,1.48,1.31,2.96,1.99,4.42,.38,.83,.77,1.65,1.16,2.47,.65,1.38,1.32,2.76,1.99,4.13,.41,.83,.82,1.66,1.24,2.49,.7,1.39,1.43,2.78,2.15,4.16,.4,.77,.8,1.53,1.21,2.3,.88,1.63,1.78,3.25,2.7,4.87,.28,.49,.54,.98,.82,1.47,1.2,2.09,2.43,4.16,3.69,6.21,.33,.53,.67,1.06,1,1.59,.95,1.52,1.91,3.03,2.89,4.53,.48,.73,.97,1.44,1.45,2.16,.87,1.3,1.75,2.59,2.65,3.87,.53,.76,1.07,1.52,1.62,2.27,.9,1.25,1.81,2.48,2.73,3.71,.55,.73,1.1,1.47,1.66,2.19,1.01,1.31,2.04,2.6,3.08,3.88,.49,.61,.97,1.23,1.47,1.83,1.55,1.88,3.12,3.73,4.74,5.56,2.28,2.58,4.64,5.07,7.03,7.51,.51,.52,1.02,1.06,1.54,1.58,2.06,2.06,4.17,4.05,6.3,6.01,1.04,.95,2.08,1.89,3.14,2.82,1.39,1.22,2.81,2.41,4.24,3.59,2,1.65,4.02,3.28,6.09,4.85,.32,.25,.65,.48,.97,.73,3.24,2.44,6.54,4.79,9.92,7.03-21.39-134.72,16.18-211.95,65.58-256.19Z"/>
    <path class="cls-5" d="M485.39,701.49c-42.93-3.17-80.07-15.13-111.08-35.7-30.59-192.67,59.47-267.72,132.15-296.92h0s-69.98,32.15-29.1,55.22c40.87,23.07,96.25,3.96,118,42.19,17.84,31.35-59.61,52.72-88.08,59.4-10.79,2.53-21.27,6.17-31.19,11.1-39.73,19.78-111.5,73.08,9.3,164.7ZM632.42,78.99c20.24,30.9,32.63,68.81,39.18,93.43,0,0,0-.01,0-.02,7.11,17.87,11,38.45,5.92,64.11-5.77,29.11-26.33,56.38-46.21,76.93-.02,.02-.04,.06-.06,.08-13.22,14.67-49.05,50.56-92.56,64.41-43.51,13.84-30.26,31.17-23.39,32.96,18.9,4.92,79.56,.58,141.72,54.44,18.46-10.55,60.31-73.56,72.84-97.95,1.32,71.86-77.13,156.9-57.35,145.03,19.78-11.87,32.84-52.14,36.92-48.12-13.18,52.08-51.9,80.45-20.15,52.86,15.52-13.49,49.7-69.5,67.9-138.84h0c-.22-22.55,2.09-185.49-77.89-268.77-2.33-2.42-4.72-4.76-7.15-7.05-.78-.74-1.58-1.46-2.38-2.18-1.69-1.54-3.4-3.05-5.13-4.53-.94-.8-1.87-1.6-2.82-2.37-1.8-1.47-3.63-2.9-5.47-4.31-.83-.63-1.64-1.29-2.47-1.91-2.44-1.8-4.94-3.54-7.46-5.23-1.3-.87-2.63-1.7-3.96-2.54-1.41-.9-2.82-1.78-4.26-2.64-1.47-.88-2.95-1.75-4.44-2.6-1.35-.77-2.73-1.5-4.1-2.24-1.54-.82-3.06-1.67-4.63-2.45,2.67,2.99,5.21,6.11,7.42,9.49Z"/>
    <path class="cls-4" d="M677.51,198.05s-12.18-68.81-45.09-119.06c-2.19-3.34-4.66-6.46-7.29-9.43-32.96-16.63-71.72-25.03-115.93-25.03-71.42,0-128.65,21.88-170.09,65.03-79.98,83.28-75.43,219.45-75.38,220.81l.03,.77-.09,.77c-.1,.79-3.9,33.49-1.88,79.11,7.99-30.81,33.03-127.88,72.49-176.04,14.55-28.52,42.96-67.04,97.02-95.04,55.44-28.71,94.69-37.25,126.89-35.9,8.92-.52,18.46,.31,28.33,3.25,2.91,.87,5.78,1.78,8.62,2.74,9.23,2.57,18.09,5.75,26.93,9.19,13.1,5.09,20.06,11.55,23.15,18.26,15.85,14.21,27.44,33.52,32.3,60.57Z"/>
    <path class="cls-3" d="M757.17,378.24c-18.19,69.38-52.37,125.43-67.9,138.92-31.75,27.59,6.96-.78,20.15-52.86-12.65,21.7-20.58,36.92-40.36,48.79,14.34-20.02,62.11-73.84,60.79-145.69-11.46,22.32-53.02,81.2-72.84,97.95,1.51,1.93,2.27,4.06,2.83,6.32,2.16,8.7-.51,17.53-7.92,26.29-2.13,2.52-4.65,4.66-7.38,6.52-4.76,3.24-13.29,8.87-20.37,12.7-75.44,40.73-121.41,50.16-84.87,100.84,14.6,19.75,74.66,38.23,106.22,46.82,0,0,0,0,0,0,3.44-2.32,6.8-4.75,10.09-7.29l1.72-1.29c1.69-1.27,6.03-5.05,7.65-6.41,.17-.15,.35-.29,.52-.44,2.7-2.37,5.32-4.85,7.9-7.38,.44-.43,.9-.84,1.34-1.27,2.92-2.91,5.77-5.93,8.53-9.05,1.83-2.07,3.61-4.19,5.35-6.32,.6-.74,1.19-1.48,1.78-2.22,1.35-1.69,2.66-3.42,3.97-5.14,.29-.38,.58-.76,.86-1.14,1.62-2.19,3.19-4.4,4.73-6.64,.25-.36,.49-.73,.73-1.09,1.24-1.86,2.49-3.72,3.69-5.62,.48-.76,.97-1.52,1.45-2.29,1.35-2.17,2.67-4.35,3.95-6.55,.09-.16,.19-.32,.29-.48,1.36-2.36,2.67-4.74,3.96-7.13,.37-.68,.73-1.37,1.09-2.06,.99-1.87,1.95-3.76,2.89-5.65,.31-.62,.62-1.24,.93-1.86,1.18-2.42,2.32-4.85,3.43-7.29,.24-.53,.47-1.07,.71-1.61,.89-1.99,1.75-3.99,2.6-5.99,.32-.75,.63-1.5,.94-2.26,.91-2.2,1.79-4.41,2.64-6.63,.12-.32,.26-.64,.38-.96,.96-2.51,1.87-5.02,2.77-7.55,.26-.74,.51-1.47,.77-2.21,.68-1.95,1.34-3.91,1.98-5.87,.23-.69,.46-1.38,.68-2.07,.81-2.53,1.6-5.06,2.35-7.59,.15-.51,.29-1.01,.44-1.52,.62-2.11,1.21-4.21,1.79-6.32,.21-.77,.42-1.55,.63-2.32,.58-2.18,1.15-4.36,1.69-6.54,.1-.41,.21-.83,.32-1.24,.63-2.55,1.23-5.1,1.8-7.65,.16-.7,.31-1.41,.47-2.11,.44-1.99,.87-3.98,1.28-5.97,.14-.68,.28-1.36,.42-2.04,.51-2.54,1.01-5.08,1.47-7.61,.07-.38,.13-.75,.2-1.13,.4-2.2,.78-4.39,1.15-6.58,.12-.72,.24-1.43,.35-2.15,.35-2.16,.69-4.32,1.01-6.46,.06-.37,.12-.75,.17-1.13,.37-2.52,.72-5.03,1.04-7.52,.08-.64,.16-1.27,.24-1.91l.71-5.83c.07-.57,.13-1.14,.2-1.71,.28-2.48,.55-4.96,.79-7.4,0-.07,.01-.13,.02-.2,.23-2.38,.45-4.73,.65-7.06,.04-.52,.09-1.03,.13-1.55,.18-2.18,.35-4.35,.51-6.49,.01-.2,.03-.41,.05-.61,.17-2.41,.32-4.8,.46-7.16,.02-.31,.03-.61,.05-.91,.12-2.08,.22-4.13,.32-6.16,.02-.33,.03-.67,.05-1,.21-4.61,.35-9.09,.45-13.41,0-.23,0-.45,.01-.68,.14-6.67,.17-12.99,.11-18.86Z"/>
    <path class="cls-6" d="M723.4,258.72c5.64-68.31-48.54-134.09-85.19-170.28-1.86-3.2-3.78-6.36-5.8-9.44-2.22-3.38-4.75-6.5-7.42-9.49,1.56,.79,3.09,1.63,4.63,2.45,1.37,.74,2.75,1.47,4.1,2.24,1.5,.85,2.97,1.72,4.44,2.6,1.43,.86,2.85,1.75,4.26,2.64,1.32,.84,2.65,1.67,3.96,2.54,2.52,1.69,5.02,3.42,7.46,5.23,.84,.62,1.64,1.28,2.47,1.91,1.84,1.41,3.68,2.84,5.47,4.31,.95,.78,1.88,1.58,2.82,2.37,1.73,1.48,3.45,2.99,5.13,4.53,.79,.73,1.6,1.44,2.38,2.18,2.43,2.29,4.82,4.63,7.15,7.05,4.3,4.48,8.35,9.2,12.19,14.11,16.04,21.87,28.35,46.51,37.72,70.38,28.96,79.5,27.81,168.08,27.97,184.27h0s0,0,0,0c0-.03,0-.06,0-.08-.56,2.13-1.14,4.26-1.72,6.36-.2,.71-.41,1.41-.61,2.12-.4,1.39-.79,2.79-1.2,4.17-.25,.83-.5,1.65-.75,2.48-.38,1.24-.75,2.49-1.14,3.72-.27,.87-.55,1.73-.83,2.59-.38,1.18-.75,2.36-1.13,3.52-.29,.87-.58,1.73-.87,2.6-.38,1.14-.76,2.28-1.15,3.41-.31,.89-.62,1.77-.93,2.65-.38,1.08-.76,2.17-1.15,3.24-.33,.9-.66,1.79-.99,2.69-.38,1.04-.77,2.09-1.16,3.13-.33,.89-.67,1.76-1.01,2.64-.39,1.02-.78,2.04-1.18,3.05-.35,.88-.7,1.75-1.04,2.62-.39,.99-.79,1.98-1.19,2.95-.36,.87-.71,1.73-1.07,2.59-.4,.96-.79,1.91-1.19,2.85-.36,.86-.73,1.7-1.09,2.55-.4,.93-.8,1.87-1.21,2.79-.37,.83-.73,1.66-1.1,2.48-.41,.91-.81,1.81-1.22,2.71-.37,.82-.75,1.63-1.12,2.44-.41,.88-.81,1.75-1.22,2.61-.38,.8-.75,1.59-1.13,2.38-.41,.86-.82,1.71-1.23,2.55-.37,.77-.75,1.53-1.12,2.28-.41,.84-.83,1.67-1.24,2.49-.37,.74-.74,1.48-1.12,2.2-.41,.81-.83,1.61-1.24,2.41-.37,.72-.75,1.43-1.12,2.14-.41,.78-.82,1.55-1.23,2.31-.37,.7-.75,1.39-1.12,2.08-.4,.74-.81,1.47-1.21,2.2-.38,.68-.75,1.36-1.13,2.03-.4,.71-.79,1.4-1.19,2.09-.38,.66-.75,1.32-1.13,1.96-.39,.67-.78,1.33-1.17,1.99-.37,.63-.75,1.27-1.12,1.89-.39,.64-.77,1.27-1.15,1.9-.37,.6-.73,1.2-1.1,1.79-.39,.62-.77,1.22-1.15,1.83-.35,.56-.71,1.12-1.06,1.67-.38,.6-.76,1.17-1.14,1.75-.34,.53-.69,1.06-1.03,1.57-.37,.56-.74,1.1-1.11,1.64-.34,.5-.67,1-1.01,1.48-.36,.52-.71,1.02-1.07,1.52-.33,.47-.67,.95-.99,1.4-.35,.48-.69,.94-1.03,1.4-.32,.44-.65,.88-.96,1.3-.34,.45-.67,.88-1.01,1.31-.31,.4-.62,.81-.92,1.19-.33,.42-.66,.81-.98,1.22-.29,.36-.58,.73-.87,1.07-.32,.39-.63,.74-.94,1.1-.28,.32-.56,.66-.83,.97-.31,.35-.6,.66-.9,.98-.26,.28-.53,.59-.78,.85-.54,.57-1.07,1.11-1.59,1.61-.52,.5-1.02,.97-1.51,1.39-31.75,27.59,6.96-.78,20.15-52.86-12.58,21.58-20.51,36.76-40.06,48.6,0-.07-.02-.12-.01-.21,0,0,0,0,0,0,4.04-5.59,10.54-13.71,17.8-24.01,.04-.06,.08-.11,.12-.17,.75-1.07,1.51-2.16,2.28-3.28,.09-.13,.17-.25,.26-.38,.75-1.09,1.51-2.22,2.27-3.35,.1-.15,.2-.3,.3-.45,.75-1.13,1.51-2.29,2.27-3.46,.11-.17,.22-.34,.33-.51,.74-1.15,1.48-2.32,2.22-3.5,.13-.21,.27-.42,.4-.64,.73-1.18,1.46-2.38,2.19-3.59,.14-.23,.28-.46,.42-.7,.71-1.2,1.42-2.42,2.13-3.65,.16-.27,.31-.53,.47-.81,.69-1.21,1.37-2.44,2.05-3.67,.17-.31,.35-.62,.52-.93,.67-1.22,1.32-2.47,1.98-3.73,.18-.34,.36-.68,.54-1.03,.64-1.23,1.26-2.49,1.88-3.75,.19-.39,.39-.76,.58-1.15,.61-1.26,1.21-2.54,1.81-3.83,.19-.41,.38-.8,.57-1.21,.58-1.28,1.15-2.59,1.72-3.89,.19-.43,.38-.86,.57-1.3,.56-1.31,1.09-2.64,1.63-3.97,.18-.46,.37-.9,.55-1.36,.51-1.31,1.01-2.64,1.5-3.97,.19-.5,.38-1,.56-1.5,.48-1.32,.93-2.67,1.38-4.02,.18-.53,.37-1.05,.54-1.58,.43-1.32,.83-2.66,1.24-4,.17-.58,.36-1.15,.53-1.73,.38-1.32,.74-2.66,1.1-4,.17-.62,.35-1.23,.51-1.86,.34-1.34,.65-2.7,.97-4.06,.15-.64,.31-1.28,.46-1.92,.29-1.33,.55-2.68,.81-4.03,.14-.69,.29-1.38,.41-2.08,.24-1.3,.44-2.63,.64-3.95,.12-.76,.26-1.51,.37-2.28,.2-1.37,.35-2.77,.52-4.16,.09-.73,.19-1.44,.27-2.17,.15-1.41,.25-2.84,.36-4.27,.06-.73,.14-1.45,.18-2.18,.09-1.47,.14-2.95,.2-4.44,.03-.71,.08-1.41,.09-2.12,.05-2.2,.06-4.42,.02-6.66-11.46,22.32-53.02,81.2-72.84,97.95-25.38-21.99-50.5-34.27-72.64-41.45,25.54-13.59,131.61-75.24,139.04-165.18Zm-195.85,261.68c33.93-9.77,82.29-28.65,67.81-54.11-6.3-11.07-15.42-17.31-26.18-21.18-14.89,15.64-36.13,42.84-41.62,75.3Z"/>
  </g>
  <g>
    <path class="cls-1" d="M213.75,799.22c-26.88,0-48.67,21.79-48.67,48.67s21.79,48.67,48.67,48.67,48.67-21.79,48.67-48.67-21.79-48.67-48.67-48.67Zm0,78.61c-16.54,0-29.94-13.4-29.94-29.94s13.4-29.94,29.94-29.94,29.94,13.4,29.94,29.94-13.4,29.94-29.94,29.94Z"/>
    <path class="cls-1" d="M613.05,799.22c-26.88,0-48.67,21.79-48.67,48.67s21.79,48.67,48.67,48.67,48.67-21.79,48.67-48.67-21.79-48.67-48.67-48.67Zm0,78.61c-16.54,0-29.94-13.4-29.94-29.94s13.4-29.94,29.94-29.94,29.94,13.4,29.94,29.94-13.4,29.94-29.94,29.94Z"/>
    <path class="cls-1" d="M841.36,799.22c-26.88,0-48.67,21.79-48.67,48.67s21.79,48.67,48.67,48.67,48.67-21.79,48.67-48.67-21.79-48.67-48.67-48.67Zm0,78.61c-16.54,0-29.94-13.4-29.94-29.94s13.4-29.94,29.94-29.94,29.94,13.4,29.94,29.94-13.4,29.94-29.94,29.94Z"/>
    <rect class="cls-1" x="401.56" y="799.22" width="19.82" height="95.71"/>
    <polygon class="cls-1" points="513.2 857.56 477.2 799.22 457.38 799.22 457.38 894.93 477.2 894.93 477.2 834.94 513.2 894.93 533.02 894.93 533.02 799.22 513.2 799.22 513.2 857.56"/>
    <path class="cls-1" d="M736.57,817.95c8.64,0,16.42,3.67,21.89,9.52,3.24-4.96,6.94-10.6,10.46-15.93-8.6-7.66-19.93-12.32-32.35-12.32-26.88,0-48.67,21.79-48.67,48.67s21.79,48.67,48.67,48.67c12.09,0,23.14-4.42,31.65-11.72l-10.07-16.21c-5.45,5.67-13.1,9.2-21.58,9.2-16.54,0-29.94-13.4-29.94-29.94s13.4-29.94,29.94-29.94Z"/>
    <path class="cls-1" d="M331.98,799.22h-38.12v95.71h19.82v-20.93h18.3c.39,0,.78-.02,1.17-.03l8.37,20.96h20.21l-10.49-26.27c10.86-6.54,18.13-18.45,18.13-32.05h0c0-20.65-16.74-37.39-37.39-37.39Zm-18.3,58.72v-39.99h11.97c13.5,0,24.45,8.95,24.45,20s-10.95,20-24.45,20h-11.97Z"/>
  </g>
  <g>
    <path class="cls-9" d="M299.57,983.63v-44.62h24.9v6.16h-17.65v11.12h17.65v6.37h-17.65v20.97h-7.25Z"/>
    <path class="cls-9" d="M357.12,939.01h7.16v27.09c0,4.02,.93,7.05,2.79,9.07,1.86,2.02,4.64,3.03,8.34,3.03s6.45-1.01,8.31-3.03c1.86-2.02,2.79-5.04,2.79-9.07v-27.09h7.25v27.77c0,6.03-1.52,10.55-4.57,13.55s-7.64,4.5-13.78,4.5-10.72-1.49-13.75-4.48c-3.03-2.99-4.54-7.51-4.54-13.56v-27.77Z"/>
    <path class="cls-9" d="M428.72,983.63v-44.62h24.9v6.16h-17.65v11.19h17.65v6.37h-17.65v14.42h17.65v6.49h-24.9Z"/>
    <path class="cls-9" d="M486.91,983.63v-44.62h7.25v38.13h16.21v6.49h-23.47Z"/>
    <path class="cls-9" d="M552.23,945.16v38.46h-7.25v-38.46h-11.86v-6.16h30.91v6.16h-11.8Z"/>
    <path class="cls-9" d="M594.54,983.63v-44.62h24.9v6.16h-17.65v11.19h17.65v6.37h-17.65v14.42h17.65v6.49h-24.9Z"/>
    <path class="cls-9" d="M688.55,949.86c-2.05-1.75-4.22-3.06-6.51-3.93-2.29-.87-4.69-1.31-7.21-1.31-4.88,0-8.84,1.57-11.9,4.69s-4.59,7.18-4.59,12.16,1.49,8.79,4.46,11.92c2.98,3.13,6.73,4.69,11.26,4.69,2.64,0,5.16-.47,7.54-1.4,2.39-.93,4.68-2.35,6.87-4.24v8.2c-1.95,1.4-4.07,2.45-6.37,3.14-2.3,.69-4.79,1.04-7.47,1.04-3.41,0-6.57-.56-9.46-1.68s-5.44-2.76-7.63-4.94c-2.17-2.13-3.85-4.65-5.01-7.54-1.17-2.9-1.75-5.98-1.75-9.25s.58-6.34,1.75-9.22c1.17-2.88,2.86-5.4,5.07-7.57,2.21-2.19,4.75-3.86,7.62-4.98,2.86-1.13,5.96-1.69,9.3-1.69,2.62,0,5.12,.38,7.5,1.14,2.38,.76,4.68,1.92,6.92,3.46l-.4,7.31Z"/>
    <path class="cls-9" d="M722.5,983.63v-44.62h7.25v16.46h21.94v-16.46h7.25v44.62h-7.25v-21.67h-21.94v21.67h-7.25Z"/>
  </g>
  <rect class="cls-9" x="191.65" y="958.86" width="80.03" height="5"/>
  <rect class="cls-9" x="781.16" y="958.86" width="80.03" height="5"/>
</svg>