<?xml version="1.0" encoding="UTF-8"?>
<svg id="Capa_1" data-name="Capa 1" xmlns="http://www.w3.org/2000/svg" xmlns:xlink="http://www.w3.org/1999/xlink" viewBox="0 0 806.89 1068.73">
  <defs>
    <style>
      .cls-1 {
        fill: url(#Degradado_sin_nombre_118);
      }

      .cls-2 {
        fill: url(#Degradado_sin_nombre_80);
      }

      .cls-3 {
        fill: url(#Degradado_sin_nombre_120);
      }

      .cls-4 {
        fill: url(#Degradado_sin_nombre_104);
      }

      .cls-5 {
        fill: url(#Degradado_sin_nombre_104-2);
      }

      .cls-6 {
        fill: url(#Degradado_sin_nombre_119);
      }

      .cls-7 {
        fill: #121d2f;
      }
    </style>
    <linearGradient id="Degradado_sin_nombre_118" data-name="Degradado sin nombre 118" x1="-91.41" y1="533.84" x2="662.46" y2="548.41" gradientUnits="userSpaceOnUse">
      <stop offset=".34" stop-color="#914526"/>
      <stop offset=".37" stop-color="#a66246"/>
      <stop offset=".41" stop-color="#c38c73"/>
      <stop offset=".45" stop-color="#dbad97"/>
      <stop offset=".48" stop-color="#ecc5b1"/>
      <stop offset=".52" stop-color="#f6d3c0"/>
      <stop offset=".54" stop-color="#fad9c6"/>
      <stop offset=".55" stop-color="#f9d8c5"/>
      <stop offset=".62" stop-color="#d19b84"/>
      <stop offset=".68" stop-color="#b36e54"/>
      <stop offset=".73" stop-color="#a15336"/>
      <stop offset=".76" stop-color="#9b492c"/>
    </linearGradient>
    <linearGradient id="Degradado_sin_nombre_119" data-name="Degradado sin nombre 119" x1="-86.75" y1="292.47" x2="667.13" y2="307.03" gradientUnits="userSpaceOnUse">
      <stop offset=".36" stop-color="#914526"/>
      <stop offset=".38" stop-color="#a66246"/>
      <stop offset=".41" stop-color="#c38c73"/>
      <stop offset=".45" stop-color="#dbad97"/>
      <stop offset=".48" stop-color="#ecc5b1"/>
      <stop offset=".51" stop-color="#f6d3c0"/>
      <stop offset=".53" stop-color="#fad9c6"/>
      <stop offset=".53" stop-color="#f9d8c5"/>
      <stop offset=".66" stop-color="#d19b84"/>
      <stop offset=".77" stop-color="#b36e54"/>
      <stop offset=".85" stop-color="#a15336"/>
      <stop offset=".9" stop-color="#9b492c"/>
    </linearGradient>
    <linearGradient id="Degradado_sin_nombre_104" data-name="Degradado sin nombre 104" x1="-88.24" y1="488.57" x2="762.98" y2="588.23" gradientUnits="userSpaceOnUse">
      <stop offset=".52" stop-color="#213456"/>
      <stop offset="1" stop-color="#3065ad"/>
    </linearGradient>
    <linearGradient id="Degradado_sin_nombre_120" data-name="Degradado sin nombre 120" x1="4.02" y1="298.1" x2="681.27" y2="298.1" gradientUnits="userSpaceOnUse">
      <stop offset="0" stop-color="#914526"/>
      <stop offset=".07" stop-color="#a66246"/>
      <stop offset=".18" stop-color="#c38c73"/>
      <stop offset=".29" stop-color="#dbad97"/>
      <stop offset=".38" stop-color="#ecc5b1"/>
      <stop offset=".47" stop-color="#f6d3c0"/>
      <stop offset=".54" stop-color="#fad9c6"/>
      <stop offset=".55" stop-color="#f9d8c5"/>
      <stop offset=".7" stop-color="#d19b84"/>
      <stop offset=".83" stop-color="#b36e54"/>
      <stop offset=".92" stop-color="#a15336"/>
      <stop offset=".98" stop-color="#9b492c"/>
    </linearGradient>
    <linearGradient id="Degradado_sin_nombre_80" data-name="Degradado sin nombre 80" x1="532.86" y1="597.64" x2="782" y2="958.89" gradientUnits="userSpaceOnUse">
      <stop offset=".09" stop-color="#914526"/>
      <stop offset=".19" stop-color="#ab5f3d"/>
      <stop offset=".31" stop-color="#c47953"/>
      <stop offset=".43" stop-color="#d38861"/>
      <stop offset=".52" stop-color="#d98e66"/>
      <stop offset=".66" stop-color="#bf714d"/>
      <stop offset=".84" stop-color="#a45335"/>
      <stop offset=".94" stop-color="#9b492c"/>
    </linearGradient>
    <linearGradient id="Degradado_sin_nombre_104-2" data-name="Degradado sin nombre 104" x1="433.32" y1="413.49" x2="806.84" y2="413.49" xlink:href="#Degradado_sin_nombre_104"/>
  </defs>
  <g>
    <path class="cls-1" d="M59.16,529.78c-5.24,17.08-3.92,19.87,0,0h0Z"/>
    <path class="cls-6" d="M157.35,275.43c-52.6,101.04-81.09,166.09-97.98,253.29-.07,.38-.14,.69-.21,1.06,16.72-54.52,100.37-254.46,380.55-326.32-9.09-9.02-53.98-6.92-53.98-6.92,0,0,75.46-62.29,208.86-33.36,4.88-5.66-93.21-44.46-203.03-28.93,4.29-6.43,65.89-53.57,137.68-32.14,71.78,21.43,132.13,59.04,148.03,147.64,0,0-19.82-111.95-73.35-193.68-3.56-5.44-7.59-10.51-11.87-15.34C538.43,13.68,475.37,0,403.44,0,287.25,0,194.16,35.59,126.75,105.79-3.36,241.26,4.03,462.78,4.13,465l.05,1.26-.15,1.26c-.16,1.28-6.35,54.48-3.06,128.69,15.44-59.5,69.93-270.9,156.39-320.78Z"/>
  </g>
  <path class="cls-7" d="M290.76,593.93c-4.34-53.89-7.37-139.01,6-219.26,21.81-130.88,117.8-126.52,117.8-126.52,97.44,1.45,109.07,85.8,116.34,129.43,5.29,31.72,6.73,92.4,7.54,120.36,25.63-19.04,121.86-100.05,138.81-185.6,8.27-41.75,1.93-75.23-9.62-104.3,6.67,25.08,9.62,41.71,9.62,41.71-15.9-88.6-76.24-126.22-148.03-147.64-71.78-21.43-133.39,25.71-137.68,32.14,109.82-15.54,207.91,23.26,203.03,28.93-133.39-28.93-208.86,33.36-208.86,33.36,0,0,44.89-2.1,53.98,6.92C159.52,275.32,75.87,475.26,59.16,529.78c-3.92,19.87-5.24,17.08,0,0,.07-.36,.14-.68,.21-1.06,16.9-87.2,45.39-152.25,97.98-253.29C70.83,325.34,16.36,536.87,.96,596.2c0,0,0,0,0,0,.14,3.16,.3,6.37,.48,9.61,.02,.39,.04,.77,.06,1.16,.16,2.95,.34,5.94,.54,8.95,.03,.44,.06,.87,.08,1.31,.21,3.19,.44,6.4,.69,9.65,.01,.19,.03,.37,.04,.56,.55,7.06,1.18,14.25,1.93,21.55,.01,.14,.03,.29,.05,.43,.34,3.33,.7,6.68,1.09,10.05,.08,.71,.17,1.42,.25,2.13,.33,2.85,.68,5.72,1.04,8.6,.11,.87,.22,1.74,.33,2.62,.36,2.82,.75,5.64,1.14,8.48,.12,.85,.23,1.69,.36,2.55,.45,3.17,.93,6.35,1.42,9.54,.07,.48,.14,.95,.22,1.43,1.16,7.41,2.45,14.89,3.86,22.4,.17,.92,.36,1.85,.53,2.77,.53,2.77,1.07,5.55,1.64,8.33,.24,1.16,.48,2.33,.72,3.49,.54,2.58,1.09,5.17,1.66,7.76,.27,1.22,.54,2.44,.81,3.65,.6,2.66,1.22,5.32,1.86,7.99,.26,1.09,.51,2.19,.78,3.28,.8,3.3,1.63,6.61,2.49,9.91,.11,.43,.21,.86,.33,1.29,.99,3.77,2.01,7.54,3.07,11.31,.24,.86,.5,1.71,.74,2.57,.81,2.85,1.64,5.69,2.5,8.53,.39,1.28,.79,2.55,1.18,3.83,.75,2.44,1.52,4.89,2.31,7.33,.44,1.37,.89,2.75,1.35,4.12,.79,2.39,1.61,4.78,2.43,7.17,.47,1.34,.93,2.69,1.4,4.03,.91,2.57,1.85,5.13,2.8,7.69,.41,1.11,.81,2.23,1.24,3.34,1.39,3.66,2.81,7.3,4.28,10.93,.13,.31,.26,.62,.39,.93,1.34,3.3,2.72,6.59,4.14,9.86,.51,1.19,1.05,2.37,1.57,3.55,1.06,2.41,2.14,4.81,3.24,7.2,.62,1.34,1.25,2.68,1.89,4.02,1.06,2.25,2.14,4.48,3.24,6.71,.67,1.35,1.33,2.7,2.01,4.04,1.15,2.27,2.32,4.52,3.5,6.77,.66,1.25,1.3,2.49,1.97,3.73,1.43,2.66,2.9,5.29,4.39,7.92,.45,.79,.88,1.59,1.34,2.38,1.95,3.39,3.96,6.76,6.01,10.1,.53,.87,1.09,1.72,1.63,2.58,1.55,2.47,3.11,4.94,4.71,7.38,.77,1.18,1.57,2.35,2.36,3.52,1.42,2.11,2.85,4.21,4.32,6.3,.87,1.24,1.75,2.47,2.63,3.7,1.46,2.03,2.94,4.04,4.44,6.04,.9,1.19,1.79,2.38,2.7,3.57,1.64,2.13,3.31,4.23,5,6.32,.8,.99,1.59,1.99,2.4,2.98,2.52,3.05,5.08,6.07,7.71,9.05,3.72,4.2,7.55,8.24,11.44,12.22,.84,.85,1.66,1.73,2.51,2.57,3.35,3.35,6.78,6.59,10.26,9.77,1.69,1.55,3.39,3.08,5.11,4.59,2.27,1.99,4.58,3.92,6.89,5.84,3.26,2.69,6.55,5.34,9.9,7.89,.52,.4,1.05,.79,1.57,1.18,5.27,3.97,10.64,7.79,16.14,11.43-34.79-219.16,26.32-344.8,106.68-416.77Z"/>
  <path class="cls-4" d="M364.73,1068.73c-69.84-5.16-130.25-24.62-180.7-58.07-49.77-313.44,96.74-435.52,214.97-483.03h0s-113.84,52.29-47.35,89.83c66.49,37.54,156.58,6.43,191.97,68.64,29.02,51-96.98,85.77-143.29,96.64-17.54,4.12-34.6,10.03-50.73,18.06-64.63,32.17-181.38,118.89,15.13,267.93ZM603.91,56.06c32.92,50.28,53.08,111.94,63.73,152,0,0,0-.02,0-.03,11.56,29.07,17.89,62.55,9.62,104.3-9.38,47.35-42.83,91.72-75.18,125.15-.03,.04-.07,.09-.1,.13-21.5,23.87-79.8,82.25-150.58,104.77-70.78,22.52-49.22,50.71-38.04,53.62,30.74,8.01,129.43,.95,230.56,88.57,30.03-17.16,98.12-119.67,118.5-159.35,2.14,116.9-125.48,255.24-93.3,235.94,32.17-19.3,53.42-84.82,60.06-78.29-21.45,84.72-84.42,130.87-32.77,86,25.25-21.94,80.85-113.07,110.46-225.87h0c-.36-36.68,3.41-301.75-126.7-437.22-3.79-3.94-7.69-7.74-11.64-11.47-1.28-1.2-2.58-2.37-3.87-3.55-2.75-2.51-5.53-4.96-8.35-7.37-1.52-1.3-3.04-2.59-4.59-3.86-2.92-2.4-5.9-4.72-8.9-7.01-1.35-1.03-2.66-2.1-4.02-3.1-3.97-2.94-8.03-5.75-12.14-8.5-2.12-1.42-4.28-2.77-6.44-4.14-2.29-1.46-4.59-2.89-6.92-4.3-2.39-1.44-4.8-2.85-7.23-4.23-2.2-1.25-4.44-2.44-6.67-3.64-2.5-1.34-4.99-2.71-7.53-3.99,4.35,4.86,8.47,9.94,12.07,15.44Z"/>
  <path class="cls-3" d="M677.25,249.75s-19.82-111.95-73.35-193.68c-3.56-5.44-7.59-10.51-11.87-15.34C538.43,13.68,475.37,0,403.44,0,287.25,0,194.16,35.59,126.75,105.79-3.36,241.26,4.03,462.78,4.13,465l.05,1.26-.15,1.26c-.16,1.28-6.35,54.48-3.06,128.69,13-50.12,53.73-208.03,117.93-286.38,23.67-46.4,69.88-109.07,157.84-154.61,90.19-46.71,154.04-60.59,206.42-58.41,14.5-.84,30.04,.5,46.09,5.29,4.73,1.41,9.41,2.9,14.03,4.46,15.01,4.18,29.43,9.36,43.8,14.95,21.31,8.29,32.63,18.79,37.66,29.7,25.78,23.11,44.64,54.53,52.54,98.53Z"/>
  <path class="cls-2" d="M806.84,542.88c-29.6,112.86-85.2,204.05-110.46,226-51.65,44.88,11.32-1.28,32.77-86-20.58,35.3-33.48,60.06-65.65,79.36,23.33-32.56,101.04-120.12,98.9-237.01-18.64,36.3-86.25,132.1-118.5,159.35,2.46,3.13,3.69,6.6,4.6,10.27,3.51,14.15-.82,28.51-12.89,42.77-3.47,4.09-7.57,7.58-12.01,10.6-7.75,5.27-21.62,14.44-33.14,20.66-122.72,66.26-197.5,81.6-138.06,164.05,23.75,32.13,121.46,62.2,172.8,76.17,0,0,0,0,0,0,5.6-3.78,11.07-7.73,16.42-11.86l2.8-2.11c2.75-2.07,9.81-8.21,12.44-10.42,.28-.24,.57-.47,.85-.72,4.39-3.86,8.65-7.89,12.85-12.01,.71-.7,1.46-1.36,2.17-2.07,4.75-4.74,9.38-9.64,13.88-14.72,2.98-3.37,5.86-6.81,8.7-10.28,.98-1.2,1.94-2.41,2.9-3.61,2.2-2.75,4.32-5.56,6.46-8.36,.47-.62,.94-1.23,1.4-1.86,2.63-3.56,5.2-7.16,7.7-10.8,.4-.59,.8-1.19,1.19-1.78,2.02-3.03,4.05-6.06,6-9.14,.79-1.24,1.58-2.48,2.36-3.73,2.19-3.52,4.34-7.07,6.42-10.65,.15-.26,.31-.52,.46-.78,2.21-3.83,4.35-7.71,6.44-11.61,.6-1.11,1.18-2.23,1.77-3.35,1.6-3.05,3.17-6.11,4.7-9.19,.5-1.01,1.01-2.01,1.51-3.02,1.92-3.93,3.78-7.89,5.59-11.87,.39-.87,.77-1.74,1.16-2.61,1.44-3.24,2.85-6.49,4.23-9.75,.51-1.22,1.03-2.45,1.53-3.67,1.47-3.58,2.91-7.17,4.3-10.78,.2-.52,.42-1.04,.62-1.57,1.56-4.08,3.05-8.17,4.51-12.28,.42-1.2,.84-2.39,1.25-3.59,1.1-3.18,2.17-6.36,3.22-9.54,.37-1.12,.74-2.25,1.1-3.37,1.32-4.11,2.6-8.23,3.82-12.35,.24-.82,.47-1.65,.71-2.47,1-3.43,1.97-6.85,2.91-10.28,.34-1.26,.69-2.52,1.02-3.78,.95-3.55,1.87-7.09,2.75-10.64,.17-.67,.35-1.35,.51-2.02,1.02-4.15,1.99-8.3,2.93-12.45,.26-1.15,.51-2.29,.76-3.44,.72-3.24,1.41-6.48,2.08-9.71,.23-1.11,.46-2.21,.69-3.32,.84-4.14,1.64-8.27,2.4-12.38,.11-.61,.22-1.23,.33-1.84,.65-3.58,1.27-7.15,1.87-10.7,.2-1.17,.39-2.33,.58-3.49,.57-3.52,1.12-7.02,1.64-10.51,.09-.61,.19-1.22,.28-1.83,.6-4.1,1.16-8.18,1.7-12.23,.14-1.04,.26-2.07,.4-3.1,.39-3.16,.77-6.32,1.16-9.48,.11-.93,.22-1.86,.32-2.78,.46-4.04,.89-8.06,1.29-12.04,.01-.11,.02-.22,.03-.33,.38-3.86,.73-7.69,1.06-11.48,.07-.84,.14-1.68,.21-2.52,.3-3.55,.57-7.07,.82-10.56,.02-.33,.05-.66,.07-.99,.28-3.93,.53-7.81,.75-11.64,.03-.5,.05-.99,.08-1.48,.19-3.38,.36-6.73,.52-10.03,.03-.54,.05-1.09,.08-1.63,.33-7.5,.57-14.78,.73-21.82,0-.37,.02-.74,.02-1.11,.23-10.86,.27-21.13,.17-30.69Z"/>
  <path class="cls-5" d="M751.91,348.44c9.17-111.12-78.97-218.14-138.58-277.01-3.03-5.2-6.15-10.35-9.43-15.36-3.6-5.5-7.73-10.58-12.07-15.44,2.54,1.28,5.03,2.65,7.53,3.99,2.23,1.2,4.47,2.4,6.67,3.64,2.43,1.38,4.84,2.79,7.23,4.23,2.33,1.4,4.63,2.84,6.92,4.3,2.15,1.37,4.32,2.72,6.44,4.14,4.11,2.75,8.17,5.57,12.14,8.5,1.36,1,2.68,2.07,4.02,3.1,3,2.29,5.98,4.61,8.9,7.01,1.54,1.27,3.07,2.57,4.59,3.86,2.82,2.41,5.61,4.86,8.35,7.37,1.29,1.18,2.6,2.35,3.87,3.55,3.95,3.73,7.85,7.52,11.64,11.47,7,7.29,13.59,14.97,19.84,22.96,26.1,35.57,46.11,75.66,61.37,114.49,47.11,129.32,45.24,273.43,45.5,299.77h0s0,.01,0,.01c0-.04,0-.09,0-.13-.91,3.47-1.85,6.92-2.81,10.35-.32,1.15-.66,2.29-.99,3.44-.65,2.27-1.29,4.54-1.95,6.78-.4,1.35-.82,2.68-1.22,4.03-.61,2.02-1.22,4.05-1.85,6.06-.44,1.41-.9,2.81-1.35,4.21-.61,1.92-1.22,3.84-1.85,5.73-.47,1.42-.95,2.82-1.42,4.23-.62,1.85-1.24,3.71-1.88,5.55-.5,1.45-1.01,2.88-1.52,4.32-.62,1.76-1.24,3.53-1.87,5.27-.53,1.47-1.07,2.92-1.61,4.37-.63,1.7-1.25,3.4-1.88,5.09-.54,1.44-1.1,2.87-1.64,4.3-.64,1.66-1.27,3.32-1.92,4.96-.56,1.43-1.13,2.85-1.7,4.27-.64,1.61-1.28,3.21-1.93,4.8-.58,1.42-1.16,2.82-1.74,4.22-.65,1.55-1.29,3.11-1.94,4.64-.59,1.39-1.18,2.77-1.78,4.14-.65,1.52-1.31,3.04-1.97,4.53-.6,1.36-1.19,2.7-1.79,4.04-.66,1.48-1.32,2.95-1.98,4.41-.61,1.33-1.21,2.65-1.82,3.97-.66,1.43-1.32,2.85-1.98,4.25-.61,1.3-1.22,2.59-1.84,3.87-.67,1.39-1.33,2.78-2,4.15-.61,1.25-1.22,2.49-1.82,3.72-.67,1.36-1.35,2.72-2.02,4.06-.61,1.2-1.21,2.4-1.82,3.59-.67,1.32-1.35,2.62-2.02,3.92-.61,1.17-1.22,2.33-1.82,3.48-.67,1.27-1.33,2.52-2,3.76-.61,1.14-1.22,2.27-1.83,3.38-.66,1.21-1.31,2.4-1.97,3.58-.61,1.11-1.23,2.21-1.84,3.3-.65,1.15-1.29,2.27-1.93,3.4-.61,1.07-1.23,2.14-1.84,3.19-.63,1.09-1.27,2.16-1.9,3.23-.61,1.03-1.22,2.06-1.82,3.07-.63,1.04-1.25,2.07-1.87,3.08-.6,.98-1.19,1.96-1.79,2.91-.63,1.01-1.25,1.99-1.87,2.98-.57,.91-1.15,1.82-1.72,2.71-.62,.97-1.24,1.91-1.85,2.85-.56,.86-1.12,1.72-1.68,2.55-.61,.91-1.2,1.79-1.8,2.67-.55,.81-1.1,1.62-1.64,2.41-.59,.85-1.16,1.66-1.74,2.48-.54,.77-1.08,1.54-1.62,2.28-.57,.79-1.12,1.53-1.67,2.29-.52,.71-1.05,1.44-1.57,2.12-.55,.74-1.09,1.43-1.64,2.13-.5,.65-1.01,1.32-1.5,1.94-.54,.69-1.07,1.33-1.6,1.98-.47,.58-.95,1.18-1.41,1.74-.52,.63-1.02,1.2-1.53,1.79-.45,.52-.91,1.08-1.35,1.57-.5,.57-.98,1.07-1.46,1.6-.42,.46-.86,.95-1.27,1.39-.89,.93-1.75,1.81-2.58,2.61-.85,.82-1.67,1.57-2.46,2.26-51.65,44.88,11.32-1.28,32.77-86-20.47,35.11-33.36,59.79-65.17,79.05,0-.11-.03-.2-.02-.33,0,0,0,0,0,0,6.57-9.09,17.14-22.3,28.96-39.07,.07-.1,.13-.19,.2-.28,1.22-1.74,2.46-3.52,3.71-5.33,.14-.21,.28-.41,.43-.61,1.22-1.78,2.45-3.6,3.69-5.45,.17-.25,.33-.48,.49-.73,1.22-1.84,2.45-3.72,3.68-5.62,.18-.28,.36-.55,.54-.83,1.2-1.86,2.4-3.77,3.61-5.7,.22-.35,.43-.68,.65-1.04,1.19-1.91,2.37-3.87,3.56-5.85,.23-.38,.46-.75,.69-1.13,1.16-1.94,2.31-3.93,3.47-5.93,.25-.44,.51-.87,.76-1.31,1.12-1.96,2.23-3.96,3.33-5.98,.28-.51,.56-1.01,.84-1.52,1.08-1.99,2.15-4.02,3.21-6.06,.29-.56,.59-1.11,.88-1.67,1.03-2.01,2.05-4.05,3.06-6.11,.31-.63,.63-1.24,.94-1.88,1-2.05,1.97-4.14,2.94-6.24,.31-.66,.62-1.3,.92-1.97,.95-2.08,1.87-4.21,2.8-6.34,.31-.71,.62-1.4,.93-2.11,.9-2.12,1.78-4.29,2.64-6.45,.3-.74,.61-1.46,.9-2.21,.84-2.13,1.64-4.29,2.44-6.46,.3-.82,.62-1.62,.92-2.44,.78-2.15,1.51-4.34,2.25-6.54,.29-.86,.59-1.7,.88-2.57,.7-2.15,1.36-4.33,2.02-6.51,.28-.94,.59-1.87,.87-2.82,.63-2.15,1.2-4.33,1.78-6.51,.27-1.01,.56-2,.82-3.02,.56-2.18,1.06-4.39,1.57-6.6,.24-1.05,.51-2.08,.74-3.13,.47-2.16,.89-4.36,1.32-6.56,.22-1.13,.47-2.24,.67-3.38,.39-2.12,.71-4.27,1.05-6.42,.2-1.24,.42-2.46,.6-3.71,.32-2.23,.57-4.5,.84-6.76,.14-1.18,.31-2.34,.44-3.53,.24-2.3,.41-4.63,.59-6.95,.09-1.19,.22-2.36,.3-3.55,.15-2.38,.23-4.8,.32-7.22,.04-1.15,.12-2.29,.15-3.45,.08-3.58,.1-7.2,.03-10.84-18.64,36.3-86.25,132.1-118.5,159.35-41.28-35.77-82.16-55.75-118.17-67.43,41.55-22.11,214.1-122.39,226.18-268.71Zm-318.6,425.69c55.2-15.9,133.87-46.61,110.31-88.03-10.24-18-25.09-28.17-42.6-34.46-24.23,25.44-58.78,69.69-67.71,122.49Z"/>
</svg>